<svg xmlns="http://www.w3.org/2000/svg" version="1.1" xmlns:xlink="http://www.w3.org/1999/xlink" xmlns:svgjs="http://svgjs.dev/svgjs" width="1500" height="268" viewBox="0 0 1500 268"><g transform="matrix(1,0,0,1,-0.9090909090909918,0.7208498993963701)"><svg viewBox="0 0 396 71" data-background-color="#000000" preserveAspectRatio="xMidYMid meet" height="268" width="1500" xmlns="http://www.w3.org/2000/svg" xmlns:xlink="http://www.w3.org/1999/xlink"><g id="tight-bounds" transform="matrix(1,0,0,1,0.2400000000000091,-0.19097142857143012)"><svg viewBox="0 0 395.52 71.38194285714286" height="71.38194285714286" width="395.52"><g><svg viewBox="0 0 395.52 71.38194285714286" height="71.38194285714286" width="395.52"><g><svg viewBox="0 0 395.52 71.38194285714286" height="71.38194285714286" width="395.52"><g id="textblocktransform"><svg viewBox="0 0 395.52 71.38194285714286" height="71.38194285714286" width="395.52" id="textblock"><g><svg viewBox="0 0 395.52 71.38194285714286" height="71.38194285714286" width="395.52"><g transform="matrix(1,0,0,1,0,0)"><svg width="395.52" viewBox="1.7 -37.5 209.99 37.9" height="71.38194285714286" data-palette-color="url(#b080fa05-735c-40b9-9119-410ae7fe68ef)"></svg></g></svg></g></svg></g></svg></g></svg></g><defs></defs><mask id="5be3d62b-8a29-4760-ab6e-91314d6704d8"><g id="SvgjsG1878"><svg viewBox="0 0 395.52 71.38194285714286" height="71.38194285714286" width="395.52"><g><svg viewBox="0 0 395.52 71.38194285714286" height="71.38194285714286" width="395.52"><g><svg viewBox="0 0 395.52 71.38194285714286" height="71.38194285714286" width="395.52"><g id="SvgjsG1877"><svg viewBox="0 0 395.52 71.38194285714286" height="71.38194285714286" width="395.52" id="SvgjsSvg1876"><g><svg viewBox="0 0 395.52 71.38194285714286" height="71.38194285714286" width="395.52"><g transform="matrix(1,0,0,1,0,0)"><svg width="395.52" viewBox="1.7 -37.5 209.99 37.9" height="71.38194285714286" data-palette-color="url(#b080fa05-735c-40b9-9119-410ae7fe68ef)"><path d="M20.25-35.35L20.25-35.35Q24.15-35.35 27.53-34 30.9-32.65 33.43-30.2 35.95-27.75 37.38-24.53 38.8-21.3 38.8-17.55L38.8-17.55Q38.8-13.8 37.38-10.53 35.95-7.25 33.43-4.8 30.9-2.35 27.53-0.98 24.15 0.4 20.25 0.4L20.25 0.4Q16.35 0.4 12.98-0.98 9.6-2.35 7.08-4.8 4.55-7.25 3.13-10.53 1.7-13.8 1.7-17.55L1.7-17.55Q1.7-21.3 3.13-24.55 4.55-27.8 7.08-30.23 9.6-32.65 12.98-34 16.35-35.35 20.25-35.35ZM20.3-30.35L20.3-30.35Q17.7-30.35 15.43-29.38 13.15-28.4 11.4-26.65 9.65-24.9 8.68-22.58 7.7-20.25 7.7-17.55L7.7-17.55Q7.7-14.85 8.7-12.5 9.7-10.15 11.45-8.38 13.2-6.6 15.48-5.6 17.75-4.6 20.3-4.6L20.3-4.6Q22.85-4.6 25.13-5.6 27.4-6.6 29.1-8.38 30.8-10.15 31.78-12.5 32.75-14.85 32.75-17.55L32.75-17.55Q32.75-20.25 31.78-22.58 30.8-24.9 29.1-26.65 27.4-28.4 25.13-29.38 22.85-30.35 20.3-30.35ZM62-24.15L59.9-20.1Q58.15-21.15 56.07-21.78 54-22.4 52.25-22.4L52.25-22.4Q50.55-22.4 49.45-21.75 48.35-21.1 48.35-19.6L48.35-19.6Q48.35-18.35 49.37-17.63 50.4-16.9 52-16.4 53.6-15.9 55.4-15.35 57.2-14.8 58.82-13.93 60.45-13.05 61.45-11.55 62.45-10.05 62.45-7.6L62.45-7.6Q62.45-4.9 61.02-3.18 59.6-1.45 57.27-0.63 54.95 0.2 52.25 0.2L52.25 0.2Q49.35 0.2 46.45-0.75 43.55-1.7 41.55-3.5L41.55-3.5 43.6-7.4Q45.35-5.85 47.85-4.98 50.35-4.1 52.5-4.1L52.5-4.1Q53.75-4.1 54.72-4.42 55.7-4.75 56.27-5.4 56.85-6.05 56.85-7.1L56.85-7.1Q56.85-8.5 55.85-9.3 54.85-10.1 53.25-10.63 51.65-11.15 49.85-11.68 48.05-12.2 46.47-13.05 44.9-13.9 43.9-15.35 42.9-16.8 42.9-19.2L42.9-19.2Q42.9-21.9 44.3-23.58 45.7-25.25 47.92-26.03 50.15-26.8 52.7-26.8L52.7-26.8Q55.2-26.8 57.7-26.1 60.2-25.4 62-24.15L62-24.15ZM87.59 0L87.59-15Q87.59-18.15 85.95-19.93 84.3-21.7 81.34-21.7L81.34-21.7Q77.9-21.6 75.92-19.15 73.95-16.7 73.95-13.1L73.95-13.1 72.34-13.1Q72.34-18 73.72-21 75.09-24 77.62-25.38 80.15-26.75 83.59-26.75L83.59-26.75Q86.65-26.75 88.82-25.5 91-24.25 92.17-21.98 93.34-19.7 93.34-16.5L93.34-16.5 93.34 0 87.59 0ZM106.95 0L106.95-15Q106.95-18.15 105.27-19.93 103.59-21.7 100.65-21.7L100.65-21.7Q97.25-21.6 95.3-19.15 93.34-16.7 93.34-13.1L93.34-13.1 91.7-13.1Q91.7-18 93.07-21 94.45-24 96.97-25.38 99.5-26.75 102.95-26.75L102.95-26.75Q106-26.75 108.17-25.5 110.34-24.25 111.52-21.98 112.7-19.7 112.7-16.5L112.7-16.5 112.7 0 106.95 0ZM68.25 0L68.25-26.55 73.95-26.55 73.95 0 68.25 0ZM120.39 0L120.39-26.55 126.09-26.55 126.09 0 120.39 0ZM123.24-37.5L123.24-37.5Q124.69-37.5 125.64-36.55 126.59-35.6 126.59-34.15L126.59-34.15Q126.59-32.75 125.64-31.78 124.69-30.8 123.24-30.8L123.24-30.8Q121.84-30.8 120.87-31.78 119.89-32.75 119.89-34.15L119.89-34.15Q119.89-35.6 120.87-36.55 121.84-37.5 123.24-37.5ZM139.49-26.55L139.49-11.55Q139.49-8.45 141.14-6.68 142.79-4.9 145.69-4.9L145.69-4.9Q149.14-5 151.06-7.45 152.99-9.9 152.99-13.5L152.99-13.5 154.54-13.5Q154.54-8.6 153.19-5.6 151.84-2.6 149.37-1.23 146.89 0.15 143.49 0.2L143.49 0.2Q140.44 0.2 138.27-1.05 136.09-2.3 134.91-4.6 133.74-6.9 133.74-10.05L133.74-10.05 133.74-26.55 139.49-26.55ZM152.99 0L152.99-26.55 158.74-26.55 158.74 0 152.99 0ZM186.59 0L186.59-15Q186.59-18.15 184.94-19.93 183.29-21.7 180.34-21.7L180.34-21.7Q176.89-21.6 174.91-19.15 172.94-16.7 172.94-13.1L172.94-13.1 171.34-13.1Q171.34-18 172.71-21 174.09-24 176.61-25.38 179.14-26.75 182.59-26.75L182.59-26.75Q185.64-26.75 187.81-25.5 189.99-24.25 191.16-21.98 192.34-19.7 192.34-16.5L192.34-16.5 192.34 0 186.59 0ZM205.94 0L205.94-15Q205.94-18.15 204.26-19.93 202.59-21.7 199.64-21.7L199.64-21.7Q196.24-21.6 194.29-19.15 192.34-16.7 192.34-13.1L192.34-13.1 190.69-13.1Q190.69-18 192.06-21 193.44-24 195.96-25.38 198.49-26.75 201.94-26.75L201.94-26.75Q204.99-26.75 207.16-25.5 209.34-24.25 210.51-21.98 211.69-19.7 211.69-16.5L211.69-16.5 211.69 0 205.94 0ZM167.24 0L167.24-26.55 172.94-26.55 172.94 0 167.24 0Z" opacity="1" transform="matrix(1,0,0,1,0,0)" fill="white" class="wordmark-text-0" id="SvgjsPath1875"></path></svg></g></svg></g></svg></g></svg></g></svg></g><defs><mask></mask></defs></svg><rect width="395.52" height="71.38194285714286" fill="black" stroke="none" visibility="hidden"></rect></g></mask><linearGradient x1="0.054" x2="0.941" y1="0.5" y2="0.5" id="b080fa05-735c-40b9-9119-410ae7fe68ef"><stop stop-color="#26282a" offset="0"></stop><stop stop-color="#9e9fa0" offset="0.498"></stop><stop stop-color="#26282a" offset="1"></stop></linearGradient><rect width="395.52" height="71.38194285714286" fill="url(#b080fa05-735c-40b9-9119-410ae7fe68ef)" mask="url(#5be3d62b-8a29-4760-ab6e-91314d6704d8)" data-fill-palette-color="primary"></rect></svg><rect width="395.52" height="71.38194285714286" fill="none" stroke="none" visibility="hidden"></rect></g></svg></g></svg>